<?xml version="1.0" standalone="no"?>
<!DOCTYPE svg PUBLIC "-//W3C//DTD SVG 20010904//EN"
 "http://www.w3.org/TR/2001/REC-SVG-20010904/DTD/svg10.dtd">
<svg version="1.0" xmlns="http://www.w3.org/2000/svg"
 width="185.000000pt" height="120.000000pt" viewBox="0 0 185.000000 120.000000"
 preserveAspectRatio="xMidYMid meet">

<g transform="translate(0.000000,120.000000) scale(0.100000,-0.100000)"
fill="#000000" stroke="none">
<path d="M1681 1125 c-11 -14 -23 -40 -27 -58 -10 -48 -49 -121 -119 -223
-116 -170 -180 -253 -190 -250 -18 5 -53 108 -80 232 -37 171 -43 190 -71 224
-29 34 -81 41 -108 15 -26 -26 -31 -85 -12 -135 10 -25 38 -112 62 -195 25
-82 60 -179 79 -214 42 -79 50 -63 -115 -236 -119 -124 -121 -127 -118 -168
l3 -42 46 -3 46 -3 102 107 c129 137 267 310 437 550 156 220 184 272 184 343
0 40 -4 53 -22 65 -34 24 -73 20 -97 -9z"/>
<path d="M555 1026 c-124 -58 -268 -228 -383 -451 -60 -116 -72 -148 -83 -218
-22 -134 29 -206 104 -147 21 16 26 32 32 87 4 38 19 100 34 138 25 67 28 70
61 73 19 1 101 16 182 34 81 18 150 30 152 27 8 -7 -22 -118 -45 -166 -10 -24
-19 -47 -19 -52 0 -5 -7 -22 -15 -37 -41 -80 20 -154 95 -114 40 21 138 346
162 533 20 164 -10 271 -88 303 -51 22 -131 17 -189 -10z m133 -146 c15 -28
12 -154 -3 -169 -15 -14 -203 -43 -258 -39 l-48 3 58 71 c56 69 102 113 153
148 35 24 81 17 98 -14z"/>
</g>
</svg>
